<mxfile host="app.diagrams.net" agent="Mozilla/5.0 (X11; Linux x86_64) AppleWebKit/537.36 (KHTML, like Gecko) Chrome/134.0.0.0 Safari/537.36" version="26.1.3">
  <diagram name="Page-1" id="kgKYdRAnwixixqKFMqlb">
    <mxGraphModel dx="794" dy="514" grid="1" gridSize="10" guides="1" tooltips="1" connect="1" arrows="1" fold="1" page="1" pageScale="1" pageWidth="850" pageHeight="1100" math="0" shadow="0">
      <root>
        <mxCell id="0" />
        <mxCell id="1" parent="0" />
        <mxCell id="sEUJc0V9VYMRzwjmS536-1" value="&lt;b&gt;&lt;font style=&quot;font-size: 16px;&quot;&gt;Ertrag der Landnutzen&lt;/font&gt;&lt;/b&gt;&lt;div&gt;&lt;span style=&quot;font-size: 16px;&quot;&gt;&lt;b&gt;&lt;br&gt;&lt;/b&gt;&lt;/span&gt;&lt;div&gt;Was und wieviel kann der Grundeigentümer erwirtschaften pro Fläche? Je höher, je besser (mehr Ertrag).&lt;/div&gt;&lt;/div&gt;" style="rounded=1;whiteSpace=wrap;html=1;fillColor=#fff2cc;strokeColor=#d6b656;" parent="1" vertex="1">
          <mxGeometry x="560" y="210" width="190" height="110" as="geometry" />
        </mxCell>
        <mxCell id="nLU-GLhrh0NxpJ9PCiuH-1" style="edgeStyle=orthogonalEdgeStyle;rounded=0;orthogonalLoop=1;jettySize=auto;html=1;entryX=0.5;entryY=0;entryDx=0;entryDy=0;" edge="1" parent="1" source="sEUJc0V9VYMRzwjmS536-2" target="sEUJc0V9VYMRzwjmS536-3">
          <mxGeometry relative="1" as="geometry" />
        </mxCell>
        <mxCell id="sEUJc0V9VYMRzwjmS536-2" value="&lt;b&gt;&lt;font style=&quot;font-size: 16px;&quot;&gt;Habitats-Verbesserung&lt;/font&gt;&lt;/b&gt;&lt;div&gt;&lt;span style=&quot;font-size: 16px;&quot;&gt;&lt;b&gt;&lt;br&gt;&lt;/b&gt;&lt;/span&gt;&lt;div&gt;Um wieviele Biodiversitäts-Punkte (?) verbessert sich ein Habitat? Je höher, je besser (mehr Biodiversitäts-Punkte).&lt;/div&gt;&lt;/div&gt;" style="rounded=1;whiteSpace=wrap;html=1;fillColor=#fff2cc;strokeColor=#d6b656;" parent="1" vertex="1">
          <mxGeometry x="140" y="70" width="190" height="110" as="geometry" />
        </mxCell>
        <mxCell id="sEUJc0V9VYMRzwjmS536-3" value="&lt;b&gt;&lt;font style=&quot;font-size: 16px;&quot;&gt;Erreichung Biodiversitäts-Vorgaben&lt;/font&gt;&lt;/b&gt;&lt;div&gt;&lt;span style=&quot;font-size: 16px;&quot;&gt;&lt;b&gt;&lt;br&gt;&lt;/b&gt;&lt;/span&gt;&lt;div&gt;Wieviele der Vorgaben (von Bund/Kanton?) werden erfüllt? Je höher, je besser.&lt;/div&gt;&lt;/div&gt;" style="rounded=1;whiteSpace=wrap;html=1;fillColor=#fff2cc;strokeColor=#d6b656;" parent="1" vertex="1">
          <mxGeometry x="100" y="400" width="190" height="110" as="geometry" />
        </mxCell>
      </root>
    </mxGraphModel>
  </diagram>
</mxfile>
